# xmcd
#
# Track frame offsets:
#	150
#	17523
#	31287
#	41572
#	60243
#	78852
#	90884
#	102143
#	116846
#	136017
#	157190
#	169099
#
# Disc length: 2440 seconds
#
# Revision: 0
# Processed by: cddbd v1.5.2PL0 Copyright (c) Steve Scherf et al.
# Submitted via: EasyCDDAExtractor 16.0.9.1
#
DISCID=8209860c
DTITLE=กิตติคุณ เชียรสงค์ - Is It Over (Audiophile Remastering)
DYEAR=2017
DGENRE=Country
TTITLE0=Is It Over
TTITLE1=Lover's Cross
TTITLE2=Time In The Bottle
TTITLE3=Child
TTITLE4=The Boxer
TTITLE5=It's Sad To Belong
TTITLE6=I'll Have To Say I Love You In A Song
TTITLE7=Longer
TTITLE8=Streets of London
TTITLE9=Everything That Glitters (Is Not Gold)
TTITLE10=We'll Never Have To Say Goodbye Again
TTITLE11=Sound of Silence
EXTD=
EXTT0=
EXTT1=
EXTT2=
EXTT3=
EXTT4=
EXTT5=
EXTT6=
EXTT7=
EXTT8=
EXTT9=
EXTT10=
EXTT11=
PLAYORDER=
